# CÔNE DÉTAILLÉ - 96 triangles
# Base circulaire avec 32 segments + sommet

# Sommet du cône
v 0.0 2.0 0.0

# Base circulaire - 32 vertices
v 1.0 0.0 0.0
v 0.9808 0.0 0.1951
v 0.9239 0.0 0.3827
v 0.8315 0.0 0.5556
v 0.7071 0.0 0.7071
v 0.5556 0.0 0.8315
v 0.3827 0.0 0.9239
v 0.1951 0.0 0.9808
v 0.0 0.0 1.0
v -0.1951 0.0 0.9808
v -0.3827 0.0 0.9239
v -0.5556 0.0 0.8315
v -0.7071 0.0 0.7071
v -0.8315 0.0 0.5556
v -0.9239 0.0 0.3827
v -0.9808 0.0 0.1951
v -1.0 0.0 0.0
v -0.9808 0.0 -0.1951
v -0.9239 0.0 -0.3827
v -0.8315 0.0 -0.5556
v -0.7071 0.0 -0.7071
v -0.5556 0.0 -0.8315
v -0.3827 0.0 -0.9239
v -0.1951 0.0 -0.9808
v 0.0 0.0 -1.0
v 0.1951 0.0 -0.9808
v 0.3827 0.0 -0.9239
v 0.5556 0.0 -0.8315
v 0.7071 0.0 -0.7071
v 0.8315 0.0 -0.5556
v 0.9239 0.0 -0.3827
v 0.9808 0.0 -0.1951

# Centre de la base
v 0.0 0.0 0.0

# Côtés du cône (32 triangles - sommet vers base)
f 1 2 3
f 1 3 4
f 1 4 5
f 1 5 6
f 1 6 7
f 1 7 8
f 1 8 9
f 1 9 10
f 1 10 11
f 1 11 12
f 1 12 13
f 1 13 14
f 1 14 15
f 1 15 16
f 1 16 17
f 1 17 18
f 1 18 19
f 1 19 20
f 1 20 21
f 1 21 22
f 1 22 23
f 1 23 24
f 1 24 25
f 1 25 26
f 1 26 27
f 1 27 28
f 1 28 29
f 1 29 30
f 1 30 31
f 1 31 32
f 1 32 33
f 1 33 2

# Base du cône (32 triangles - centre vers bord)
f 34 2 3
f 34 3 4
f 34 4 5
f 34 5 6
f 34 6 7
f 34 7 8
f 34 8 9
f 34 9 10
f 34 10 11
f 34 11 12
f 34 12 13
f 34 13 14
f 34 14 15
f 34 15 16
f 34 16 17
f 34 17 18
f 34 18 19
f 34 19 20
f 34 20 21
f 34 21 22
f 34 22 23
f 34 23 24
f 34 24 25
f 34 25 26
f 34 26 27
f 34 27 28
f 34 28 29
f 34 29 30
f 34 30 31
f 34 31 32
f 34 32 33
f 34 33 2

# Anneau extérieur de la base (32 triangles supplémentaires pour plus de détails)
f 2 34 3
f 3 34 4
f 4 34 5
f 5 34 6
f 6 34 7
f 7 34 8
f 8 34 9
f 9 34 10
f 10 34 11
f 11 34 12
f 12 34 13
f 13 34 14
f 14 34 15
f 15 34 16
f 16 34 17
f 17 34 18
f 18 34 19
f 19 34 20
f 20 34 21
f 21 34 22
f 22 34 23
f 23 34 24
f 24 34 25
f 25 34 26
f 26 34 27
f 27 34 28
f 28 34 29
f 29 34 30
f 30 34 31
f 31 34 32
f 32 34 33
f 33 34 2